<svg width="28" height="28" viewBox="0 0 28 28" fill="none" xmlns="http://www.w3.org/2000/svg">
<path d="M6.75 8.75C6.75 7.50736 7.75736 6.5 9 6.5H19C20.2426 6.5 21.25 7.50736 21.25 8.75V10H18.5C16.9812 10 15.75 11.2312 15.75 12.75V14.25C15.75 15.7688 16.9812 17 18.5 17H21.25V19.25C21.25 20.4926 20.2426 21.5 19 21.5H9C7.75736 21.5 6.75 20.4926 6.75 19.25V8.75Z" stroke="#F8FAFC" stroke-width="1.75"/>
<path d="M21.25 10.75H18.5C17.5335 10.75 16.75 11.5335 16.75 12.5V14.5C16.75 15.4665 17.5335 16.25 18.5 16.25H21.25C22.2165 16.25 23 15.4665 23 14.5V12.5C23 11.5335 22.2165 10.75 21.25 10.75Z" stroke="#F8FAFC" stroke-width="1.75"/>
<circle cx="18.875" cy="13.5" r="1" fill="#F8FAFC"/>
<path d="M9.75 9.75H17" stroke="#F8FAFC" stroke-width="1.75" stroke-linecap="round"/>
</svg>
